<svg width="275" height="47" viewBox="0 0 275 47" fill="none" xmlns="http://www.w3.org/2000/svg">
<path fill-rule="evenodd" clip-rule="evenodd" d="M9.34314 0.000244141H9.34829C14.45 0.0121761 23.729 1.19367 28.5577 8.96983C28.7541 9.28669 28.8582 9.66955 28.8582 10.0772V44.3943C22.975 38.2376 14.4471 37.1767 9.35692 37.1645C8.14952 37.1615 7.16742 36.1808 7.16742 34.9784V2.18708C7.16742 1.60024 7.39602 1.049 7.81104 0.635021C8.22152 0.225546 8.76515 0.000244141 9.34314 0.000244141ZM21.8084 16.8567V18.1327C20.9556 17.073 19.7748 16.5539 18.2441 16.5539C16.779 16.5539 15.5326 17.1162 14.483 18.2193C13.4552 19.3224 12.9304 20.6633 12.9304 22.2638C12.9304 23.8643 13.4552 25.2269 14.483 26.3298C15.5326 27.4329 16.779 27.9737 18.2441 27.9737C19.7748 27.9737 20.9556 27.4546 21.8084 26.3947V27.6709H24.6293V16.8567H21.8084ZM18.7689 25.3134C17.8942 25.3134 17.1727 25.0321 16.604 24.4699C16.0355 23.8858 15.7512 23.1505 15.7512 22.2638C15.7512 21.3771 16.0355 20.6416 16.604 20.0794C17.1727 19.4953 17.8942 19.2142 18.7689 19.2142C19.6435 19.2142 20.3653 19.4953 20.9338 20.0794C21.5241 20.6416 21.8084 21.3771 21.8084 22.2638C21.8084 23.1505 21.5241 23.8858 20.9338 24.4699C20.3653 25.0321 19.6435 25.3134 18.7689 25.3134Z" fill="#FF6900"/>
<path d="M57.3036 7.44885H55.7179V34.8648C55.7179 37.9349 53.2164 40.4385 50.1415 40.4461C45.824 40.4564 38.7051 41.3006 33.6633 46.0725C42.3831 43.9374 51.5753 45.3254 56.8141 46.5192C57.4681 46.6681 58.144 46.5141 58.6682 46.0965C59.1904 45.6798 59.49 45.057 59.49 44.3886V9.63527C59.4901 8.4297 58.5091 7.44885 57.3036 7.44885Z" fill="#FF6900"/>
<path d="M3.77202 34.9781V7.56226H2.18643C0.981073 7.56226 0 8.54314 0 9.7487V44.5012C0 45.1699 0.29959 45.7926 0.821813 46.2093C1.34548 46.6268 2.02079 46.7813 2.67593 46.6319C7.91464 45.4379 17.107 44.0502 25.8265 46.1853C20.7848 41.4136 13.6659 40.5696 9.34838 40.5592C6.27368 40.5519 3.77202 38.0483 3.77202 34.9781Z" fill="#FF6900"/>
<path fill-rule="evenodd" clip-rule="evenodd" d="M52.323 2.18683V34.9784C52.323 36.1806 51.341 37.1612 50.1337 37.1643C45.0436 37.1765 36.5156 38.2374 30.6324 44.394V10.0773C30.6324 9.66964 30.7363 9.28663 30.9327 8.96977C35.7616 1.19362 45.0407 0.0121306 50.1421 0H50.1475C50.7248 0 51.2688 0.225301 51.6794 0.634776C52.0945 1.04876 52.323 1.6 52.323 2.18683ZM37.2199 27.6708V26.3948C38.0727 27.4547 39.2535 27.9736 40.7842 27.9736C42.2493 27.9736 43.4957 27.4114 44.5454 26.3084C45.5731 25.2053 46.0979 23.8644 46.0979 22.2639C46.0979 20.6634 45.5731 19.3008 44.5454 18.1977C43.4957 17.0946 42.2493 16.554 40.7842 16.554C39.2535 16.554 38.0727 17.0729 37.2199 18.1328V16.8568H34.3991V27.6708H37.2199ZM40.2594 19.2143C41.134 19.2143 41.8557 19.4954 42.4242 20.0578C42.9927 20.6417 43.277 21.377 43.277 22.2639C43.277 23.1506 42.9927 23.8859 42.4242 24.4483C41.8557 25.0322 41.134 25.3135 40.2594 25.3135C39.3847 25.3135 38.6631 25.0322 38.0945 24.4483C37.5042 23.8859 37.2199 23.1506 37.2199 22.2639C37.2199 21.377 37.5042 20.6417 38.0945 20.0578C38.6631 19.4954 39.3847 19.2143 40.2594 19.2143Z" fill="#FF6900"/>
<path d="M105.554 14.9351C108.578 14.9351 110.986 15.9413 112.78 17.9536C114.608 19.966 115.522 22.6612 115.522 26.0391V42.6413H108.719V26.5243C108.719 24.9072 108.332 23.6493 107.558 22.751C106.785 21.8527 105.695 21.4034 104.288 21.4034C102.741 21.4034 101.528 21.9245 100.649 22.9666C99.8056 24.0087 99.3836 25.518 99.3836 27.4945V42.6413H92.5801V26.5243C92.5801 24.9072 92.1934 23.6493 91.4199 22.751C90.6463 21.8527 89.5563 21.4034 88.15 21.4034C86.6381 21.4034 85.4251 21.9425 84.5109 23.0205C83.6319 24.0626 83.1924 25.554 83.1924 27.4945V42.6413H76.3889V15.6896H83.1924V18.5466C84.7746 16.1388 87.2182 14.9351 90.5233 14.9351C93.7932 14.9351 96.184 16.2286 97.6959 18.8161C99.4188 16.2286 102.038 14.9351 105.554 14.9351Z" fill="black"/>
<path d="M138.705 30.2435V15.6896H145.508V42.6413H138.705V39.6227C137.087 42.1382 134.468 43.396 130.847 43.396C127.963 43.396 125.572 42.4078 123.674 40.4313C121.81 38.4189 120.879 35.6877 120.879 32.238V15.6896H127.682V31.3756C127.682 33.1363 128.139 34.5019 129.053 35.4722C130.003 36.4424 131.286 36.9275 132.903 36.9275C134.697 36.9275 136.103 36.3705 137.123 35.2566C138.177 34.1066 138.705 32.4355 138.705 30.2435Z" fill="black"/>
<path d="M166.823 15.6896V22.3737H160.863V33.5856C160.863 34.52 161.092 35.2027 161.549 35.634C162.006 36.0652 162.675 36.3168 163.553 36.3886C164.432 36.4245 165.523 36.4066 166.823 36.3347V42.6413C162.218 43.1805 158.93 42.7492 156.961 41.3478C155.027 39.9103 154.06 37.323 154.06 33.5856V22.3737H149.472V15.6896H154.06V10.2454L160.863 8.14319V15.6896H166.823Z" fill="black"/>
<path d="M193.264 39.2993C190.592 42.0305 187.286 43.396 183.349 43.396C179.41 43.396 176.105 42.0305 173.433 39.2993C170.761 36.5682 169.424 33.1903 169.424 29.1655C169.424 25.1767 170.761 21.8166 173.433 19.0856C176.141 16.3185 179.445 14.9351 183.349 14.9351C187.251 14.9351 190.557 16.3185 193.264 19.0856C195.971 21.8527 197.325 25.2126 197.325 29.1655C197.325 33.1544 195.971 36.5323 193.264 39.2993ZM178.232 34.5019C179.604 35.9035 181.309 36.6041 183.349 36.6041C185.388 36.6041 187.093 35.9035 188.464 34.5019C189.836 33.1005 190.522 31.3217 190.522 29.1655C190.522 27.0094 189.836 25.2306 188.464 23.829C187.093 22.4276 185.388 21.7268 183.349 21.7268C181.309 21.7268 179.604 22.4276 178.232 23.829C176.897 25.2665 176.228 27.0453 176.228 29.1655C176.228 31.2858 176.897 33.0646 178.232 34.5019Z" fill="black"/>
<path d="M208.914 42.6413H202.111V3.29187H208.914V42.6413Z" fill="black"/>
<path d="M235.183 18.87V15.6896H241.986V42.6413H235.183V39.4611C233.143 42.0844 230.277 43.396 226.586 43.396C223.069 43.396 220.046 42.0305 217.514 39.2993C215.018 36.5323 213.77 33.1544 213.77 29.1655C213.77 25.2126 215.018 21.8527 217.514 19.0856C220.046 16.3185 223.069 14.9351 226.586 14.9351C230.277 14.9351 233.143 16.2467 235.183 18.87ZM222.631 34.6637C224.001 36.0651 225.741 36.7659 227.851 36.7659C229.961 36.7659 231.701 36.0651 233.073 34.6637C234.479 33.2262 235.183 31.3935 235.183 29.1655C235.183 26.9374 234.479 25.1227 233.073 23.7213C231.701 22.2838 229.961 21.5652 227.851 21.5652C225.741 21.5652 224.001 22.2838 222.631 23.7213C221.259 25.1227 220.573 26.9374 220.573 29.1655C220.573 31.3935 221.259 33.2262 222.631 34.6637Z" fill="#FF6900"/>
<path d="M268.197 18.87V15.6896H275V42.6413H268.197V39.4611C266.157 42.0844 263.291 43.396 259.6 43.396C256.085 43.396 253.06 42.0305 250.528 39.2993C248.032 36.5323 246.783 33.1544 246.783 29.1655C246.783 25.2126 248.032 21.8527 250.528 19.0856C253.06 16.3185 256.085 14.9351 259.6 14.9351C263.291 14.9351 266.157 16.2467 268.197 18.87ZM255.645 34.6637C257.015 36.0651 258.757 36.7659 260.865 36.7659C262.975 36.7659 264.715 36.0651 266.087 34.6637C267.494 33.2262 268.197 31.3935 268.197 29.1655C268.197 26.9374 267.494 25.1227 266.087 23.7213C264.715 22.2838 262.975 21.5652 260.865 21.5652C258.757 21.5652 257.015 22.2838 255.645 23.7213C254.273 25.1227 253.588 26.9374 253.588 29.1655C253.588 31.3935 254.273 33.2262 255.645 34.6637Z" fill="#FF6900"/>
</svg>
